<?xml version="1.0" encoding="UTF-8" standalone="no"?>
<!-- Created with Inkscape (http://www.inkscape.org/) -->
<svg
   xmlns:dc="http://purl.org/dc/elements/1.1/"
   xmlns:cc="http://creativecommons.org/ns#"
   xmlns:rdf="http://www.w3.org/1999/02/22-rdf-syntax-ns#"
   xmlns:svg="http://www.w3.org/2000/svg"
   xmlns="http://www.w3.org/2000/svg"
   xmlns:xlink="http://www.w3.org/1999/xlink"
   xmlns:sodipodi="http://sodipodi.sourceforge.net/DTD/sodipodi-0.dtd"
   xmlns:inkscape="http://www.inkscape.org/namespaces/inkscape"
   id="svg2506"
   sodipodi:version="0.32"
   inkscape:version="0.46"
   width="314"
   height="296"
   version="1.0"
   sodipodi:docname="logo.svg"
   inkscape:export-filename="C:\dev\cpp\Ipponboard\images\logo.png.png"
   inkscape:export-xdpi="90"
   inkscape:export-ydpi="90"
   inkscape:output_extension="org.inkscape.output.svg.inkscape">
  <metadata
     id="metadata2511">
    <rdf:RDF>
      <cc:Work
         rdf:about="">
        <dc:format>image/svg+xml</dc:format>
        <dc:type
           rdf:resource="http://purl.org/dc/dcmitype/StillImage" />
      </cc:Work>
    </rdf:RDF>
  </metadata>
  <defs
     id="defs2509">
    <linearGradient
       id="linearGradient3356">
      <stop
         style="stop-color:#ececec;stop-opacity:1;"
         offset="0"
         id="stop3358" />
      <stop
         style="stop-color:#ececec;stop-opacity:0;"
         offset="1"
         id="stop3360" />
    </linearGradient>
    <linearGradient
       id="linearGradient3340">
      <stop
         id="stop3342"
         offset="0"
         style="stop-color:#ffffff;stop-opacity:1;" />
      <stop
         id="stop3344"
         offset="1"
         style="stop-color:#606060;stop-opacity:1;" />
    </linearGradient>
    <linearGradient
       id="linearGradient3308">
      <stop
         style="stop-color:#3cc8ff;stop-opacity:1;"
         offset="0"
         id="stop3310" />
      <stop
         style="stop-color:#002eff;stop-opacity:1;"
         offset="1"
         id="stop3318" />
    </linearGradient>
    <inkscape:perspective
       sodipodi:type="inkscape:persp3d"
       inkscape:vp_x="0 : 526.18109 : 1"
       inkscape:vp_y="0 : 1000 : 0"
       inkscape:vp_z="744.09448 : 526.18109 : 1"
       inkscape:persp3d-origin="372.04724 : 350.78739 : 1"
       id="perspective2513" />
    <linearGradient
       inkscape:collect="always"
       xlink:href="#linearGradient3308"
       id="linearGradient3314"
       x1="377.60727"
       y1="55.889801"
       x2="377.22543"
       y2="119.31513"
       gradientUnits="userSpaceOnUse"
       gradientTransform="matrix(1.1864407,0,0,1,-395.87853,-49.381154)" />
    <linearGradient
       inkscape:collect="always"
       xlink:href="#linearGradient3308"
       id="linearGradient3330"
       gradientUnits="userSpaceOnUse"
       gradientTransform="matrix(1.1864407,0,0,1,-293.49193,-48.701597)"
       x1="377.60727"
       y1="55.889801"
       x2="377.22543"
       y2="110.25437" />
    <linearGradient
       inkscape:collect="always"
       xlink:href="#linearGradient3308"
       id="linearGradient3334"
       gradientUnits="userSpaceOnUse"
       gradientTransform="matrix(1.1864407,0,0,1,-191.55835,-48.248559)"
       x1="377.60727"
       y1="55.889801"
       x2="377.60727"
       y2="112.06653" />
    <linearGradient
       inkscape:collect="always"
       xlink:href="#linearGradient3340"
       id="linearGradient3338"
       gradientUnits="userSpaceOnUse"
       gradientTransform="matrix(1.1864407,0,0,1,-394.97247,95.817561)"
       x1="377.60727"
       y1="55.889801"
       x2="377.60727"
       y2="192.25427" />
    <linearGradient
       inkscape:collect="always"
       xlink:href="#linearGradient3340"
       id="linearGradient3348"
       gradientUnits="userSpaceOnUse"
       gradientTransform="matrix(1.1864407,0,0,1,-293.94496,95.364518)"
       x1="377.60727"
       y1="55.889801"
       x2="377.60727"
       y2="192.25427" />
    <linearGradient
       inkscape:collect="always"
       xlink:href="#linearGradient3340"
       id="linearGradient3352"
       gradientUnits="userSpaceOnUse"
       gradientTransform="matrix(1.1864407,0,0,1,-191.55836,95.817562)"
       x1="377.60727"
       y1="55.889801"
       x2="377.60727"
       y2="192.25427" />
    <linearGradient
       inkscape:collect="always"
       xlink:href="#linearGradient3356"
       id="linearGradient3362"
       x1="150.86169"
       y1="307.77896"
       x2="151.31479"
       y2="150.80127"
       gradientUnits="userSpaceOnUse" />
  </defs>
  <sodipodi:namedview
     inkscape:window-height="1033"
     inkscape:window-width="1920"
     inkscape:pageshadow="2"
     inkscape:pageopacity="0.0"
     guidetolerance="10.0"
     gridtolerance="10.0"
     objecttolerance="10.0"
     borderopacity="1.0"
     bordercolor="#666666"
     pagecolor="#ffffff"
     id="base"
     showgrid="false"
     inkscape:zoom="2.2073198"
     inkscape:cx="112.30432"
     inkscape:cy="144.28915"
     inkscape:window-x="-4"
     inkscape:window-y="-4"
     inkscape:current-layer="svg2506" />
  <rect
     style="opacity:1;fill:url(#linearGradient3338);fill-opacity:1;fill-rule:evenodd;stroke:#cb0000;stroke-width:0;stroke-linecap:square;stroke-linejoin:miter;stroke-miterlimit:0;stroke-dasharray:none;stroke-dashoffset:0;stroke-opacity:1"
     id="rect3336"
     width="95.138"
     height="136.36447"
     x="8.1546822"
     y="151.70737" />
  <rect
     style="opacity:1;fill:url(#linearGradient3348);fill-opacity:1;fill-rule:evenodd;stroke:#cb0000;stroke-width:0;stroke-linecap:square;stroke-linejoin:miter;stroke-miterlimit:0;stroke-dasharray:none;stroke-dashoffset:0;stroke-opacity:1"
     id="rect3346"
     width="95.138"
     height="136.36447"
     x="109.18219"
     y="151.25432" />
  <rect
     style="opacity:1;fill:url(#linearGradient3352);fill-opacity:1;fill-rule:evenodd;stroke:#cb0000;stroke-width:0;stroke-linecap:square;stroke-linejoin:miter;stroke-miterlimit:0;stroke-dasharray:none;stroke-dashoffset:0;stroke-opacity:1"
     id="rect3350"
     width="95.138"
     height="136.36447"
     x="211.5688"
     y="151.70735" />
  <rect
     style="opacity:1;fill:url(#linearGradient3314);fill-opacity:1;fill-rule:evenodd;stroke:#cb0000;stroke-width:0;stroke-linecap:square;stroke-linejoin:miter;stroke-miterlimit:0;stroke-dasharray:none;stroke-dashoffset:0;stroke-opacity:1"
     id="rect3306"
     width="95.138"
     height="136.36447"
     x="7.2486215"
     y="6.508647" />
  <rect
     style="opacity:1;fill:url(#linearGradient3330);fill-opacity:1;fill-rule:evenodd;stroke:#cb0000;stroke-width:0;stroke-linecap:square;stroke-linejoin:miter;stroke-miterlimit:0;stroke-dasharray:none;stroke-dashoffset:0;stroke-opacity:1"
     id="rect3328"
     width="95.138"
     height="136.36447"
     x="109.63522"
     y="7.1882038" />
  <rect
     style="opacity:1;fill:url(#linearGradient3334);fill-opacity:1;fill-rule:evenodd;stroke:#cb0000;stroke-width:0;stroke-linecap:square;stroke-linejoin:miter;stroke-miterlimit:0;stroke-dasharray:none;stroke-dashoffset:0;stroke-opacity:1"
     id="rect3332"
     width="95.138"
     height="136.36447"
     x="211.56879"
     y="7.641242" />
  <g
     id="g2517">
    <path
       style="fill:#1e1e1e"
       d="M 28,273.92482 C 28,273.64982 30.25,271.20865 33,268.5 C 35.75,265.79135 38,263.80018 38,264.07518 C 38,264.35018 35.75,266.79135 33,269.5 C 30.25,272.20865 28,274.19982 28,273.92482 z M 77.5,269 C 74.791351,266.25 72.800184,264 73.075184,264 C 73.350184,264 75.791351,266.25 78.5,269 C 81.208649,271.75 83.199816,274 82.924816,274 C 82.649816,274 80.208649,271.75 77.5,269 z M 179.5,269 C 176.79135,266.25 174.80018,264 175.07518,264 C 175.35018,264 177.79135,266.25 180.5,269 C 183.20865,271.75 185.19982,274 184.92482,274 C 184.64982,274 182.20865,271.75 179.5,269 z M 232,273.92482 C 232,273.64982 234.25,271.20865 237,268.5 C 239.75,265.79135 242,263.80018 242,264.07518 C 242,264.35018 239.75,266.79135 237,269.5 C 234.25,272.20865 232,274.19982 232,273.92482 z M 281.5,269 C 278.79135,266.25 276.80018,264 277.07518,264 C 277.35018,264 279.79135,266.25 282.5,269 C 285.20865,271.75 287.19982,274 286.92482,274 C 286.64982,274 284.20865,271.75 281.5,269 z M 33.5,168 C 30.791351,165.25 28.800184,163 29.075184,163 C 29.350184,163 31.791351,165.25 34.5,168 C 37.208649,170.75 39.199816,173 38.924816,173 C 38.649816,173 36.208649,170.75 33.5,168 z M 72,172.92482 C 72,172.64982 74.25,170.20865 77,167.5 C 79.75,164.79135 82,162.80018 82,163.07518 C 82,163.35018 79.75,165.79135 77,168.5 C 74.25,171.20865 72,173.19982 72,172.92482 z M 237.5,168 C 234.79135,165.25 232.80018,163 233.07518,163 C 233.35018,163 235.79135,165.25 238.5,168 C 241.20865,170.75 243.19982,173 242.92482,173 C 242.64982,173 240.20865,170.75 237.5,168 z M 276,172.92482 C 276,172.64982 278.25,170.20865 281,167.5 C 283.75,164.79135 286,162.80018 286,163.07518 C 286,163.35018 283.75,165.79135 281,168.5 C 278.25,171.20865 276,173.19982 276,172.92482 z M 77.5,125 C 74.791351,122.25 72.800184,120 73.075184,120 C 73.350184,120 75.791351,122.25 78.5,125 C 81.208649,127.75 83.199816,130 82.924816,130 C 82.649816,130 80.208649,127.75 77.5,125 z M 130,129.92482 C 130,129.64982 132.25,127.20865 135,124.5 C 137.75,121.79135 140,119.80018 140,120.07518 C 140,120.35018 137.75,122.79135 135,125.5 C 132.25,128.20865 130,130.19982 130,129.92482 z M 179.5,125 C 176.79135,122.25 174.80018,120 175.07518,120 C 175.35018,120 177.79135,122.25 180.5,125 C 183.20865,127.75 185.19982,130 184.92482,130 C 184.64982,130 182.20865,127.75 179.5,125 z M 232,129.92482 C 232,129.64982 234.25,127.20865 237,124.5 C 239.75,121.79135 242,119.80018 242,120.07518 C 242,120.35018 239.75,122.79135 237,125.5 C 234.25,128.20865 232,130.19982 232,129.92482 z M 135.5,24 C 132.79135,21.25 130.80018,19 131.07518,19 C 131.35018,19 133.79135,21.25 136.5,24 C 139.20865,26.75 141.19982,29 140.92482,29 C 140.64982,29 138.20865,26.75 135.5,24 z M 174,28.924816 C 174,28.649816 176.25,26.208649 179,23.5 C 181.75,20.791351 184,18.800184 184,19.075184 C 184,19.350184 181.75,21.791351 179,24.5 C 176.25,27.208649 174,29.199816 174,28.924816 z M 237.5,24 C 234.79135,21.25 232.80018,19 233.07518,19 C 233.35018,19 235.79135,21.25 238.5,24 C 241.20865,26.75 243.19982,29 242.92482,29 C 242.64982,29 240.20865,26.75 237.5,24 z M 276,28.924816 C 276,28.649816 278.25,26.208649 281,23.5 C 283.75,20.791351 286,18.800184 286,19.075184 C 286,19.350184 283.75,21.791351 281,24.5 C 278.25,27.208649 276,29.199816 276,28.924816 z"
       id="path2521" />
    <path
       style="fill:#000000"
       d="M 7,219.5 L 7,150 L 55.5,150 L 104,150 L 104,219.5 L 104,289 L 55.5,289 L 7,289 L 7,219.5 z M 102,219.5 L 102,152 L 55.5,152 L 9,152 L 9,219.5 L 9,287 L 55.5,287 L 102,287 L 102,219.5 z M 34.5,271 L 39.424816,266 L 55.5,266 L 71.575184,266 L 76.5,271 L 81.424816,276 L 55.5,276 L 29.575184,276 L 34.5,271 z M 28,247.71241 C 28,233.57058 28.212962,222 28.473249,222 C 28.733535,222 30.983535,222.98967 33.473249,224.19927 L 38,226.39853 L 38,244.98686 L 38,263.57518 L 33,268.5 L 28,273.42482 L 28,247.71241 z M 77.75,268.25473 L 73,263.4313 L 73,244.91492 L 73,226.39853 L 77.620917,224.15352 C 80.162422,222.91876 82.42029,222.08696 82.638402,222.30507 C 82.856514,222.52318 82.914601,234.03635 82.767485,247.8899 L 82.5,273.07816 L 77.75,268.25473 z M 28,191.28759 L 28,165.57518 L 33,170.5 L 38,175.42482 L 38,194.01314 L 38,212.60147 L 33.473249,214.80073 C 30.983535,216.01033 28.733535,217 28.473249,217 C 28.212962,217 28,205.42942 28,191.28759 z M 77.25,214.74095 L 73,212.60597 L 73,194.0154 L 73,175.42482 L 78,170.5 L 83,165.57518 L 83,191.28759 C 83,205.42942 82.6625,216.97208 82.25,216.93797 C 81.8375,216.90385 79.5875,215.91519 77.25,214.74095 z M 34.5,168 L 29.575184,163 L 55.5,163 L 81.424816,163 L 76.5,168 L 71.575184,173 L 55.5,173 L 39.424816,173 L 34.5,168 z M 109,219.5 L 109,150 L 157.5,150 L 206,150 L 206,219.5 L 206,289 L 157.5,289 L 109,289 L 109,219.5 z M 204,219.5 L 204,152 L 157.5,152 L 111,152 L 111,219.5 L 111,287 L 157.5,287 L 204,287 L 204,219.5 z M 179.75,268.25473 L 175,263.4313 L 175,244.91492 L 175,226.39853 L 179.62092,224.15352 C 182.16242,222.91876 184.42029,222.08696 184.6384,222.30507 C 184.85651,222.52318 184.9146,234.03635 184.76748,247.8899 L 184.5,273.07816 L 179.75,268.25473 z M 179.25,214.74095 L 175,212.60597 L 175,194.0154 L 175,175.42482 L 180,170.5 L 185,165.57518 L 185,191.28759 C 185,205.42942 184.6625,216.97208 184.25,216.93797 C 183.8375,216.90385 181.5875,215.91519 179.25,214.74095 z M 211,219.5 L 211,150 L 259.5,150 L 308,150 L 308,219.5 L 308,289 L 259.5,289 L 211,289 L 211,219.5 z M 306,219.5 L 306,152 L 259.5,152 L 213,152 L 213,219.5 L 213,287 L 259.5,287 L 306,287 L 306,219.5 z M 238.5,271 L 243.42482,266 L 259.5,266 L 275.57518,266 L 280.5,271 L 285.42482,276 L 259.5,276 L 233.57518,276 L 238.5,271 z M 232,247.71241 C 232,233.57058 232.21296,222 232.47325,222 C 232.73354,222 234.98354,222.98967 237.47325,224.19927 L 242,226.39853 L 242,244.98686 L 242,263.57518 L 237,268.5 L 232,273.42482 L 232,247.71241 z M 281.75,268.25473 L 277,263.4313 L 277,244.91492 L 277,226.39853 L 281.62092,224.15352 C 284.16242,222.91876 286.42029,222.08696 286.6384,222.30507 C 286.85651,222.52318 286.9146,234.03635 286.76748,247.8899 L 286.5,273.07816 L 281.75,268.25473 z M 232,191.28759 L 232,165.57518 L 237,170.5 L 242,175.42482 L 242,194.01314 L 242,212.60147 L 237.47325,214.80073 C 234.98354,216.01033 232.73354,217 232.47325,217 C 232.21296,217 232,205.42942 232,191.28759 z M 281.25,214.74095 L 277,212.60597 L 277,194.0154 L 277,175.42482 L 282,170.5 L 287,165.57518 L 287,191.28759 C 287,205.42942 286.6625,216.97208 286.25,216.93797 C 285.8375,216.90385 283.5875,215.91519 281.25,214.74095 z M 238.5,168 L 233.57518,163 L 259.5,163 L 285.42482,163 L 280.5,168 L 275.57518,173 L 259.5,173 L 243.42482,173 L 238.5,168 z M 7,75.5 L 7,6 L 55.5,6 L 104,6 L 104,75.5 L 104,145 L 55.5,145 L 7,145 L 7,75.5 z M 102,75.5 L 102,8 L 55.5,8 L 9,8 L 9,75.5 L 9,143 L 55.5,143 L 102,143 L 102,75.5 z M 77.75,124.25473 L 73,119.4313 L 73,100.91492 L 73,82.398531 L 77.620917,80.153516 C 80.162422,78.918758 82.42029,78.086957 82.638402,78.305069 C 82.856514,78.523181 82.914601,90.036355 82.767485,103.8899 L 82.5,129.07816 L 77.75,124.25473 z M 77.25,70.740952 L 73,68.605975 L 73,50.015396 L 73,31.424816 L 78,26.5 L 83,21.575184 L 83,47.287592 C 83,61.429416 82.6625,72.972084 82.25,72.937965 C 81.8375,72.903846 79.5875,71.91519 77.25,70.740952 z M 109,75.5 L 109,6 L 157.5,6 L 206,6 L 206,75.5 L 206,145 L 157.5,145 L 109,145 L 109,75.5 z M 204,75.5 L 204,8 L 157.5,8 L 111,8 L 111,75.5 L 111,143 L 157.5,143 L 204,143 L 204,75.5 z M 136.5,127 L 141.42482,122 L 157.5,122 L 173.57518,122 L 178.5,127 L 183.42482,132 L 157.5,132 L 131.57518,132 L 136.5,127 z M 130,103.71241 C 130,89.570584 130.21296,78 130.47325,78 C 130.73354,78 132.98354,78.98967 135.47325,80.199266 L 140,82.398531 L 140,100.98686 L 140,119.57518 L 135,124.5 L 130,129.42482 L 130,103.71241 z M 179.75,124.25473 L 175,119.4313 L 175,100.91492 L 175,82.398531 L 179.62092,80.153516 C 182.16242,78.918758 184.42029,78.086957 184.6384,78.305069 C 184.85651,78.523181 184.9146,90.036355 184.76748,103.8899 L 184.5,129.07816 L 179.75,124.25473 z M 130,47.287592 L 130,21.575184 L 135,26.5 L 140,31.424816 L 140,50.013142 L 140,68.601469 L 135.47325,70.800734 C 132.98354,72.01033 130.73354,73 130.47325,73 C 130.21296,73 130,61.429416 130,47.287592 z M 179.25,70.740952 L 175,68.605975 L 175,50.015396 L 175,31.424816 L 180,26.5 L 185,21.575184 L 185,47.287592 C 185,61.429416 184.6625,72.972084 184.25,72.937965 C 183.8375,72.903846 181.5875,71.91519 179.25,70.740952 z M 136.5,24 L 131.57518,19 L 157.5,19 L 183.42482,19 L 178.5,24 L 173.57518,29 L 157.5,29 L 141.42482,29 L 136.5,24 z M 211,75.5 L 211,6 L 259.5,6 L 308,6 L 308,75.5 L 308,145 L 259.5,145 L 211,145 L 211,75.5 z M 306,75.5 L 306,8 L 259.5,8 L 213,8 L 213,75.5 L 213,143 L 259.5,143 L 306,143 L 306,75.5 z M 238.5,127 L 243.42482,122 L 259.5,122 L 275.57518,122 L 280.5,127 L 285.42482,132 L 259.5,132 L 233.57518,132 L 238.5,127 z M 232,103.71241 C 232,89.570584 232.21296,78 232.47325,78 C 232.73354,78 234.98354,78.98967 237.47325,80.199266 L 242,82.398531 L 242,100.98686 L 242,119.57518 L 237,124.5 L 232,129.42482 L 232,103.71241 z M 239.13258,78.126477 L 233.76517,75.34731 L 238.81797,73.173655 C 243.28879,71.25036 245.67093,71 259.5,71 C 273.32907,71 275.71121,71.25036 280.18203,73.173655 L 285.23483,75.34731 L 279.86742,78.126477 C 274.69766,80.803297 273.9476,80.905645 259.5,80.905645 C 245.0524,80.905645 244.30234,80.803297 239.13258,78.126477 z M 281.25,70.740952 L 277,68.605975 L 277,50.015396 L 277,31.424816 L 282,26.5 L 287,21.575184 L 287,47.287592 C 287,61.429416 286.6625,72.972084 286.25,72.937965 C 285.8375,72.903846 283.5875,71.91519 281.25,70.740952 z M 238.5,24 L 233.57518,19 L 259.5,19 L 285.42482,19 L 280.5,24 L 275.57518,29 L 259.5,29 L 243.42482,29 L 238.5,24 z"
       id="path2519" />
  </g>
  <rect
     style="opacity:0.87214612000000002;fill:url(#linearGradient3362);fill-opacity:1;fill-rule:nonzero;stroke:#cb0000;stroke-width:0;stroke-linecap:square;stroke-linejoin:miter;stroke-miterlimit:0;stroke-dasharray:none;stroke-dashoffset:0;stroke-opacity:1"
     id="rect3354"
     width="313.95547"
     height="147.23738"
     x="0.45303813"
     y="148.30957" />
</svg>
